<svg width="169" height="57" viewBox="0 0 169 57" fill="none" xmlns="http://www.w3.org/2000/svg">
<g clip-path="url(#clip0_10_1577)">
<path d="M71.6099 0.930952H75.7981C81.6446 16.599 88.2046 31.9948 93.7789 47.8662C99.5149 32.0482 105.815 16.537 111.882 0.925781H115.942C115.881 1.10848 115.836 1.2636 115.777 1.41355C108.509 19.8083 101.24 38.203 93.9652 56.5952C93.9048 56.7477 93.7594 56.8658 93.6539 56.9994C93.5408 56.8779 93.3784 56.7753 93.3214 56.6314C86.3881 38.9338 79.4625 21.2328 72.5385 3.53095C72.2681 2.83894 72.0121 2.14089 71.7553 1.44371C71.6975 1.28687 71.6634 1.12227 71.6099 0.930952Z" fill="black"/>
<path d="M146.946 9.36585C140.723 25.0356 134.512 40.6735 128.297 56.3226H124.166C124.21 56.183 124.235 56.0744 124.277 55.9719C129.786 42.3385 135.301 28.7068 140.804 15.0708C142.778 10.1811 144.727 5.281 146.698 0.389526C146.76 0.235267 146.938 0.129267 147.063 0C147.181 0.116341 147.352 0.211137 147.407 0.352469C154.485 18.6541 161.553 36.9593 168.622 55.2644C168.749 55.5944 168.864 55.9297 168.999 56.3011C168.857 56.3218 168.766 56.3459 168.675 56.3459C167.485 56.3485 166.294 56.3459 165.105 56.3494C164.911 56.3494 164.786 56.3364 164.696 56.0986C159.72 43.021 154.729 29.9495 149.752 16.8728C148.842 14.4823 147.978 12.0736 147.091 9.67351C147.054 9.57182 147 9.47702 146.945 9.36413L146.946 9.36585Z" fill="black"/>
<path d="M22.2832 49.7524C22.8002 49.5861 23.0902 49.7972 23.3658 50.2014C24.1133 51.2976 24.9067 52.3619 25.6831 53.4383C25.7639 53.5503 25.8532 53.6563 25.9637 53.7968C26.8447 52.5739 27.7028 51.3829 28.5609 50.1919C28.812 49.8432 29.1669 49.6918 29.6256 49.7378V56.7415H27.8355V54.1837C27.7997 54.1699 27.764 54.1553 27.7283 54.1415C27.1517 54.9593 26.576 55.7763 25.9561 56.6562C25.3489 55.797 24.7664 54.9731 24.1847 54.1492C24.1532 54.1587 24.1226 54.1682 24.0912 54.1777V56.7441H22.2841V49.7524H22.2832Z" fill="black"/>
<path d="M13.73 24.4097C12.5403 24.364 11.3285 23.8142 10.6201 22.4509C9.96784 21.197 10.0495 19.9276 10.8131 18.74C11.6652 17.4146 13.3924 16.8071 15.0158 17.2155C16.584 17.6102 17.6274 18.8202 17.8068 20.4533C18.0415 22.5888 16.2991 24.4071 13.73 24.4097ZM14.02 18.8728C12.9145 18.8676 12.0632 19.6794 12.0573 20.7454C12.0513 21.8106 12.8941 22.631 14.0013 22.6362C15.1077 22.6413 15.9598 21.8287 15.9632 20.7644C15.9666 19.6966 15.1255 18.8779 14.0192 18.8728H14.02Z" fill="black"/>
<path d="M14.2606 40.6723C11.4586 40.6723 9.66676 38.018 10.7791 35.5172C11.5972 33.6773 13.8762 32.8456 15.8407 33.6704C17.6639 34.4356 18.5339 36.4634 17.8383 38.3266C17.3042 39.7571 15.9087 40.6715 14.2606 40.6715V40.6723ZM14.2844 35.1363C13.1781 35.1268 12.3234 35.9351 12.3132 36.9994C12.303 38.0663 13.1406 38.8893 14.2479 38.8997C15.3542 38.91 16.2114 38.0999 16.2191 37.0373C16.2276 35.9687 15.39 35.1457 14.2844 35.1363Z" fill="black"/>
<path d="M13.985 56.9366C12.7953 56.8909 11.5835 56.3411 10.8751 54.9778C10.2237 53.7239 10.3045 52.4545 11.0682 51.267C11.9203 49.9415 13.6474 49.334 15.2708 49.7433C16.8398 50.138 17.8824 51.348 18.0619 52.981C18.2966 55.1165 16.5541 56.934 13.985 56.9366ZM14.2827 51.3997C13.1763 51.3911 12.3225 52.1994 12.3132 53.2646C12.3038 54.3315 13.1423 55.1536 14.2487 55.1631C15.355 55.1725 16.2114 54.3625 16.2182 53.299C16.2258 52.2304 15.3882 51.4083 14.2827 51.3997Z" fill="black"/>
<path d="M149.16 53.8216C149.161 52.0687 150.567 50.652 152.3 50.6563C154.009 50.6606 155.405 52.0696 155.42 53.8052C155.436 55.5443 154.02 56.9895 152.295 56.9955C150.57 57.0016 149.158 55.5719 149.16 53.8216Z" fill="black"/>
<path d="M45.5742 18.0341C45.2348 18.5003 44.91 18.9467 44.5809 19.3983C43.9839 18.9648 43.3708 18.6977 42.6513 18.9011C41.8715 19.1217 41.363 19.6353 41.2388 20.4471C41.1181 21.2382 41.4251 21.894 42.0867 22.331C42.7491 22.7679 43.4643 22.8342 44.1769 22.4395C44.4916 22.2655 44.6676 21.9794 44.6761 21.5743H43.1122V20.2179H46.6142C47.0419 21.6665 46.2171 23.3953 44.7816 24.0623C43.0391 24.8724 40.8697 24.2364 39.8773 22.6265C38.9419 21.1081 39.2531 19.1708 40.6197 18.0065C42.0458 16.7923 44.228 16.788 45.5759 18.0341H45.5742Z" fill="black"/>
<path d="M37.3115 40.5502V33.5302C37.735 33.5302 38.1543 33.5129 38.571 33.5336C39.3312 33.5715 40.111 33.5362 40.8458 33.7008C42.5381 34.08 43.3902 35.3485 43.3392 37.2315C43.2949 38.8715 42.2711 40.1452 40.6383 40.3848C39.5574 40.5434 38.4477 40.5011 37.3115 40.5502ZM39.1118 38.7715C39.9325 38.7526 40.725 38.7319 41.2378 37.9623C41.5967 37.4246 41.5882 36.5257 41.2191 36.0078C40.6936 35.271 39.9274 35.2399 39.1118 35.271V38.7715Z" fill="black"/>
<path d="M4.38995 33.5516H6.21236V40.4692H4.41377V37.8761H2.33879V40.4838H0.521484V33.5516H2.31158V36.0861H4.38995V33.5508V33.5516Z" fill="black"/>
<path d="M6.2091 56.7465H4.42156V54.1439H2.32788V56.743H0.525879V49.8203H2.30151V52.3471H4.3969V49.8246H6.2091V56.7465Z" fill="black"/>
<path d="M25.11 7.95272H23.0877C23.0367 7.12885 22.4636 7.12971 21.8487 7.1797C21.5672 7.20297 21.2806 7.20641 21 7.17884C20.483 7.12713 20.0442 7.16936 19.9158 7.80535C19.9021 7.87257 19.7814 7.9622 19.7083 7.96392C19.1053 7.97685 18.5032 7.97081 17.8569 7.97081C17.9241 7.80104 17.9658 7.68212 18.0177 7.56836C18.9812 5.44838 19.9506 3.33184 20.9031 1.20755C21.0204 0.945566 21.1786 0.881794 21.4295 0.907648C21.6676 0.932639 21.9099 0.837843 22.0605 1.17566C23.0401 3.36631 24.0436 5.54662 25.0377 7.73038C25.0658 7.79243 25.0811 7.86051 25.1108 7.95272H25.11ZM20.7959 5.79568H22.1829C21.9542 5.26223 21.7416 4.76843 21.4898 4.18242C21.233 4.77964 21.023 5.26827 20.7959 5.79568Z" fill="black"/>
<path d="M28.8848 24.2352C29.412 23.0778 29.9086 21.9894 30.4036 20.9001C30.93 19.7427 31.4649 18.5896 31.9734 17.4245C32.0899 17.1573 32.2711 17.1565 32.4854 17.1746C32.7065 17.1935 32.9463 17.0841 33.0917 17.4081C34.0858 19.6238 35.0995 21.8299 36.1047 24.0404C36.1268 24.0887 36.1302 24.1464 36.1497 24.2343C35.5332 24.2343 34.9396 24.2541 34.3503 24.2171C34.2304 24.2093 34.0722 24.0051 34.022 23.8586C33.9115 23.5397 33.7448 23.4173 33.3995 23.4363C32.8068 23.4699 32.2098 23.463 31.6163 23.438C31.3237 23.4251 31.1553 23.5216 31.0924 23.8017C31.0074 24.1809 30.771 24.2679 30.4095 24.2429C29.9308 24.2093 29.4486 24.2343 28.8848 24.2343V24.2352ZM31.8476 22.0557H33.232C33.0024 21.5214 32.7898 21.0285 32.5381 20.4433C32.2804 21.044 32.0712 21.5326 31.8467 22.0557H31.8476Z" fill="black"/>
<path d="M53.6698 40.4811H51.6476C51.5923 39.6219 50.9851 39.665 50.366 39.7089C50.0982 39.7279 49.826 39.7348 49.5599 39.7072C49.0437 39.6547 48.6032 39.6952 48.4748 40.332C48.4611 40.3992 48.3404 40.4897 48.2673 40.4914C47.6643 40.5044 47.0614 40.4983 46.3989 40.4983C46.5767 40.1054 46.7272 39.7693 46.8794 39.4349C47.7417 37.5364 48.6108 35.6405 49.4612 33.7359C49.5777 33.4748 49.7359 33.4085 49.9868 33.4352C50.2249 33.461 50.4672 33.3645 50.6186 33.7023C51.5983 35.893 52.6017 38.0733 53.5959 40.257C53.6239 40.3191 53.6392 40.3872 53.6698 40.4802V40.4811ZM50.0514 36.7065C49.7912 37.3106 49.5777 37.807 49.3515 38.3318H50.7411C50.5191 37.8079 50.3108 37.3175 50.0514 36.7065Z" fill="black"/>
<path d="M4.9538 1.03125V2.71173H2.32862V3.65882H4.46822V5.20917H2.32522V6.22693H4.94955V7.95567H0.52832V1.03125H4.9538Z" fill="black"/>
<path d="M52.799 18.9846V19.9154H54.9599V21.4666H52.8101V22.4852H55.4276V24.207H51.0132V17.293H55.4344V18.9838H52.7982L52.799 18.9846Z" fill="black"/>
<path d="M34.2686 49.8086H38.6906V51.5115H36.0689V52.4422H38.2153V53.9934H36.0655V55.012H38.683V56.7339H34.2686V49.8086Z" fill="black"/>
<path d="M47.5683 50.7275C47.1966 51.1532 46.8888 51.5066 46.6847 51.7401C46.1753 51.5884 45.7782 51.4238 45.3674 51.373C45.2101 51.3532 45.0205 51.5928 44.8461 51.7143C44.9694 51.8668 45.0621 52.0754 45.2203 52.1624C45.8011 52.4821 46.4551 52.6881 46.9875 53.0707C48.1448 53.9023 48.1363 55.5164 46.99 56.3033C46.6277 56.5515 46.1779 56.7135 45.745 56.8031C44.5374 57.053 43.2542 56.5135 42.7559 55.6199C43.1088 55.2484 43.4574 54.8805 43.8248 54.4935C44.2475 54.9554 44.7586 55.2148 45.3751 55.1261C45.5868 55.0959 45.7782 54.9235 45.9789 54.8167C45.8573 54.628 45.7773 54.3711 45.6064 54.2626C45.1889 53.9997 44.7262 53.811 44.2874 53.5817C43.7185 53.2844 43.2423 52.8958 43.0654 52.2322C42.8843 51.5531 43.0407 50.9542 43.5042 50.4423C44.3521 49.5055 46.058 49.3582 47.041 50.1458C47.2553 50.3173 47.4161 50.5578 47.5674 50.7284L47.5683 50.7275Z" fill="black"/>
<path d="M8.85095 1.00228C9.46834 1.00228 10.0458 0.985041 10.6206 1.01606C10.7363 1.0221 10.8885 1.18928 10.9446 1.31769C11.38 2.31046 11.7959 3.31271 12.2194 4.31066C12.273 4.43648 12.335 4.55885 12.4226 4.74586C12.9193 3.57297 13.3955 2.47592 13.8436 1.36767C13.9585 1.08415 14.1005 0.978146 14.4032 0.993658C14.9211 1.02037 15.4415 1.00055 16.0045 1.00055C15.9416 1.16515 15.9025 1.28408 15.8506 1.39783C14.899 3.50403 13.9372 5.60678 13.0026 7.72073C12.8691 8.02235 12.6948 8.06372 12.4184 8.06458C12.142 8.06458 11.9711 8.01891 11.8401 7.72073C10.9072 5.60592 9.94881 3.50231 9.00062 1.39439C8.94959 1.28063 8.91133 1.16171 8.8501 1.00141L8.85095 1.00228Z" fill="black"/>
<path d="M3.58031 21.0172C4.08375 19.8271 4.55827 18.7266 5.01153 17.6175C5.11783 17.3589 5.23859 17.2383 5.53623 17.2555C6.05668 17.2857 6.58052 17.2641 7.15879 17.2641C7.10522 17.4124 7.0729 17.5278 7.02443 17.6364C6.06773 19.7564 5.09998 21.8712 4.15943 23.9981C4.02252 24.3083 3.83373 24.3273 3.56585 24.3264C3.31158 24.3256 3.14065 24.3015 3.01309 24.011C2.07 21.8695 1.10139 19.7392 0.141293 17.6054C0.101324 17.5166 0.0664574 17.4244 0.000976562 17.2667C0.643029 17.2667 1.24171 17.2547 1.83869 17.2797C1.93053 17.2831 2.04959 17.4417 2.09806 17.5546C2.52922 18.5499 2.94676 19.5504 3.36941 20.5493C3.42384 20.6777 3.48422 20.8043 3.58031 21.0189V21.0172Z" fill="black"/>
<path d="M24.7632 24.2155H22.9349C22.9349 23.3425 22.9493 22.4867 22.9255 21.6327C22.9187 21.3742 22.8498 21.0949 22.7316 20.8666C22.1806 19.8023 21.6032 18.7526 21.0351 17.6978C20.9696 17.5754 20.9101 17.4496 20.8174 17.2652C21.4858 17.2652 22.1015 17.254 22.7163 17.2764C22.8167 17.2798 22.9493 17.4117 23.0029 17.5177C23.2852 18.0709 23.5463 18.6354 23.8491 19.2671C24.1441 18.6492 24.4163 18.1037 24.6663 17.5478C24.7607 17.3376 24.8772 17.2505 25.1136 17.2583C25.6783 17.2772 26.2438 17.2643 26.8841 17.2643C26.8008 17.4298 26.743 17.5513 26.68 17.6694C26.106 18.7371 25.5209 19.7997 24.9631 20.876C24.8449 21.1053 24.7785 21.3854 24.7709 21.6448C24.7471 22.4876 24.7624 23.3304 24.7624 24.2155H24.7632Z" fill="black"/>
<path d="M57.8693 40.4658C57.8693 39.5807 57.8812 38.7224 57.8616 37.8649C57.8565 37.6339 57.797 37.3823 57.6898 37.1789C57.0631 35.981 56.4159 34.7935 55.7373 33.531C56.4304 33.531 57.058 33.5198 57.6847 33.5431C57.7791 33.5465 57.8965 33.7016 57.9526 33.8128C58.2281 34.3575 58.4858 34.9099 58.7851 35.5321C59.0649 34.9478 59.3353 34.4333 59.559 33.8973C59.684 33.5965 59.8549 33.5043 60.167 33.5215C60.6883 33.5491 61.2122 33.5293 61.8007 33.5293C61.736 33.6749 61.6952 33.7861 61.6399 33.8886C61.0532 34.9822 60.4553 36.0698 59.8813 37.1703C59.7742 37.3745 59.7112 37.6262 59.7053 37.858C59.6849 38.7155 59.6968 39.573 59.6968 40.4658H57.8684H57.8693Z" fill="black"/>
<path d="M26.7157 38.7564V40.4748H22.2817V33.5547H24.0761V38.7555H26.7157V38.7564Z" fill="black"/>
<path d="M32.7339 33.5625V40.4723H30.96V33.5625H32.7339Z" fill="black"/>
</g>
<defs>
<clipPath id="clip0_10_1577">
<rect width="169" height="57" fill="white"/>
</clipPath>
</defs>
</svg>
