<svg width="81" height="80" viewBox="0 0 81 80" fill="none" xmlns="http://www.w3.org/2000/svg">
<rect x="0.5" width="80" height="80" rx="10" fill="white"/>
<path d="M22.0524 23.2423V42.9424C22.0524 53.6669 30.5362 62.3589 41 62.3589C51.4638 62.3589 59.9476 53.6669 59.9476 42.9424V23.2529L40.8862 16.8319L22.0524 23.2423ZM40.8809 13L63.5 20.6161V42.9424C63.5 55.6756 53.4253 66 41 66C28.5747 66 18.5 55.6756 18.5 42.9424V20.6161L40.8809 13ZM52.5782 30.1853C52.4054 30.0264 52.2025 29.9039 51.9814 29.8253C51.7603 29.7466 51.5257 29.7133 51.2915 29.7274C51.0573 29.7415 50.8283 29.8027 50.6183 29.9073C50.4082 30.0119 50.2213 30.1578 50.0688 30.3363L38.6441 43.5042L31.2641 35.3289C31.1081 35.1539 30.9185 35.0121 30.7066 34.912C30.4947 34.8118 30.2649 34.7554 30.0307 34.746C29.7966 34.7366 29.563 34.7744 29.3438 34.8573C29.1246 34.9401 28.9242 35.0663 28.7547 35.2282C28.4076 35.5603 28.2033 36.0146 28.185 36.4949C28.1668 36.9752 28.3359 37.4438 28.6568 37.8014L37.3656 47.4473C37.5315 47.634 37.7354 47.783 37.9636 47.8841C38.1918 47.9853 38.439 48.0364 38.6885 48.0338C38.9381 48.0313 39.1842 47.9753 39.4103 47.8696C39.6365 47.7639 39.8373 47.6108 39.9994 47.4209L52.7238 32.7558C53.0378 32.3923 53.1983 31.9208 53.1711 31.441C53.1439 30.9612 52.9313 30.5108 52.5782 30.1853Z" fill="#399DB3"/>
</svg>
