<svg width="81" height="80" viewBox="0 0 81 80" fill="none" xmlns="http://www.w3.org/2000/svg">
<rect x="0.5" width="80" height="80" rx="10" fill="white"/>
<path d="M53.4172 16.2345L54.1656 16.9812C54.4417 17.2565 54.4417 17.7037 54.1656 17.9791C53.8905 18.2536 53.4452 18.2536 53.17 17.9791L52.4216 17.2324C52.1455 16.957 52.1455 16.5099 52.4216 16.2345C52.6967 15.96 53.142 15.96 53.4172 16.2345Z" fill="#399DB3"/>
<path d="M53.4601 20.1646L51.1729 17.9779L49.4897 16.3787C47.5149 14.5023 44.4013 14.5522 42.4875 16.4908L16.9943 42.3147C15.0615 44.2726 15.0735 47.4241 17.0212 49.3671L20.6967 53.0339C22.6484 54.981 25.8077 54.981 27.7594 53.0339L53.5362 27.3184C55.5239 25.3354 55.4896 22.1049 53.4601 20.1646Z" fill="#399DB3"/>
<path d="M18.1289 52.5649L18.0568 52.5049C17.6147 52.1374 16.9464 52.2144 16.662 52.714C14.2569 56.9378 17.9487 59.7187 20.9847 62.2815C23.5794 64.4718 26.723 62.6963 27.9704 61.5348L43.4656 46.0396C43.8561 45.6491 44.4893 45.6491 44.8798 46.0396L47.2971 48.4569C47.773 48.9328 48.5533 48.9033 48.9919 48.3928C49.3799 47.9412 49.3616 47.2687 48.9495 46.8389L44.9048 42.6204C44.5128 42.2115 43.8632 42.206 43.4684 42.6122C38.2509 47.9801 28.5685 57.8336 26.4735 59.5436C23.7291 61.7837 21.4837 59.7925 19.7372 58.0502C18.1548 56.4716 18.1406 54.8929 18.4514 53.8104C18.5796 53.3636 18.4864 52.8621 18.1289 52.5649Z" fill="#399DB3"/>
<path d="M51.9941 48.5815L49.0397 51.657C48.2847 52.4429 48.2979 53.6887 49.0695 54.4584L61.6515 67.0105C62.5663 67.7572 64.9448 68.8026 67.1403 67.0105C69.3358 65.2185 68.3877 62.6133 67.6393 61.5348L54.8612 48.5635C54.0708 47.7612 52.7742 47.7693 51.9941 48.5815Z" fill="#399DB3"/>
</svg>
