<svg width="81" height="80" viewBox="0 0 81 80" fill="none" xmlns="http://www.w3.org/2000/svg">
<rect x="0.5" width="80" height="80" rx="10" fill="white"/>
<path d="M55.8336 49.2998C54.8012 49.2994 53.7794 49.5134 52.8299 49.9287C51.8804 50.344 51.023 50.9521 50.3095 51.7162L32.5824 41.5025C32.9258 40.182 32.9258 38.7925 32.5824 37.472L50.3095 27.2583C51.6003 28.6288 53.3349 29.4703 55.1881 29.6252C57.0414 29.7801 58.8862 29.2377 60.377 28.0996C61.8678 26.9616 62.9022 25.306 63.2865 23.443C63.6708 21.58 63.3786 19.6374 62.4647 17.9791C61.5508 16.3209 60.0778 15.0608 58.3217 14.4349C56.5656 13.809 54.6469 13.8602 52.925 14.579C51.2032 15.2978 49.7963 16.6348 48.968 18.3395C48.1397 20.0443 47.9468 21.9998 48.4254 23.8398L30.6983 34.0535C29.6394 32.9229 28.2744 32.1426 26.7789 31.8129C25.2833 31.4833 23.7257 31.6194 22.3063 32.2037C20.8869 32.7881 19.6708 33.794 18.8142 35.0919C17.9577 36.3899 17.5 37.9207 17.5 39.4872C17.5 41.0538 17.9577 42.5845 18.8142 43.8825C19.6708 45.1805 20.8869 46.1864 22.3063 46.7707C23.7257 47.3551 25.2833 47.4912 26.7789 47.1615C28.2744 46.8319 29.6394 46.0516 30.6983 44.921L48.4254 55.1347C48.0144 56.7192 48.0982 58.3958 48.665 59.9291C49.2318 61.4625 50.2532 62.7756 51.5859 63.6842C52.9186 64.5928 54.4956 65.0513 56.0957 64.9954C57.6958 64.9395 59.2386 64.372 60.5077 63.3724C61.7768 62.3729 62.7084 60.9915 63.1718 59.4222C63.6353 57.8528 63.6072 56.1743 63.0917 54.6221C62.5761 53.0699 61.599 51.722 60.2972 50.7674C58.9955 49.8129 57.4346 49.2997 55.8336 49.2998Z" fill="#399DB3"/>
</svg>
