<svg width="81" height="80" viewBox="0 0 81 80" fill="none" xmlns="http://www.w3.org/2000/svg">
<rect x="0.5" width="80" height="80" rx="10" fill="white"/>
<path fill-rule="evenodd" clip-rule="evenodd" d="M33.0826 15H48.9174C51.0612 15 52.4272 15 53.604 15.2877C55.961 15.8671 58.1261 17.2972 59.8254 19.3972C61.5248 21.4973 62.6821 24.1728 63.1509 27.0856C63.33 28.1921 63.3709 29.4345 63.3812 31.1321C64.8552 31.6482 66.1526 32.7447 67.0764 34.2549C68.0003 35.7652 68.5001 37.6068 68.5 39.5V47.2262C68.5 52.063 66.4586 56.3117 63.3837 58.7238V61.629C63.3837 62.2579 63.1816 62.8609 62.8218 63.3056C62.462 63.7502 61.974 64 61.4651 64C60.9563 64 60.4683 63.7502 60.1085 63.3056C59.7486 62.8609 59.5465 62.2579 59.5465 61.629V60.6016C58.8788 60.7597 58.1907 60.8387 57.4847 60.8387H24.5154C23.8093 60.8387 23.1212 60.7565 22.4535 60.6016V61.629C22.4535 62.2579 22.2514 62.8609 21.8915 63.3056C21.5317 63.7502 21.0437 64 20.5349 64C20.026 64 19.538 63.7502 19.1782 63.3056C18.8184 62.8609 18.6163 62.2579 18.6163 61.629V58.7238C17.0483 57.4965 15.757 55.799 14.8625 53.7893C13.968 51.7796 13.4993 49.523 13.5 47.2294V39.5C13.5 35.5168 15.6642 32.1658 18.6188 31.1321C18.6291 29.4345 18.67 28.1921 18.8491 27.0856C19.3179 24.1728 20.4752 21.4973 22.1746 19.3972C23.8739 17.2972 26.039 15.8671 28.396 15.2877C29.5728 15 30.9388 15 33.0826 15ZM22.4586 31.1352C23.9307 31.653 25.2262 32.7497 26.1485 34.2591C27.0708 35.7686 27.5698 37.6085 27.5698 39.5V43.2935C27.5698 43.3821 27.626 43.4516 27.6977 43.4516H54.3023C54.3363 43.4516 54.3688 43.435 54.3928 43.4053C54.4168 43.3757 54.4302 43.3355 54.4302 43.2935V39.5C54.4302 35.5231 56.5919 32.169 59.5414 31.1352C59.5312 29.523 59.4979 28.701 59.3879 28.0119C59.0672 26.0184 58.2753 24.1872 57.1124 22.75C55.9494 21.3128 54.1131 19.3963 52.5 19C51.7428 18.8166 50.9686 19 48.5 19H33.0826C30.614 19 29.7572 18.8166 29 19C27.3869 19.3963 26.0506 21.3128 24.8877 22.75C23.7247 24.1872 22.9328 26.0184 22.6121 28.0119C22.5021 28.701 22.4688 29.5261 22.4586 31.1352ZM20.5349 35.5484C18.7698 35.5484 17.3372 37.3187 17.3372 39.5V47.2262C17.3372 49.5788 18.0935 51.8351 19.4396 53.4986C20.7858 55.1622 22.6116 57 24.5154 57H57.4847C59.3884 57 61.2142 55.1622 62.5604 53.4986C63.9065 51.8351 64.6628 49.5788 64.6628 47.2262V39.5C64.6628 38.452 64.3259 37.4469 63.7262 36.7058C63.1265 35.9647 62.3132 35.5484 61.4651 35.5484C60.617 35.5484 59.8037 35.9647 59.204 36.7058C58.6043 37.4469 58.2674 38.452 58.2674 39.5V43.2935C58.2674 44.5931 57.8497 45.8394 57.1061 46.7584C56.3625 47.6773 55.3539 48.1936 54.3023 48.1936H27.6977C26.6461 48.1936 25.6375 47.6773 24.8939 46.7584C24.1503 45.8394 23.7326 44.5931 23.7326 43.2935V39.5C23.7326 37.3187 22.3 35.5484 20.5349 35.5484Z" fill="#399DB3"/>
</svg>
