<svg width="81" height="80" viewBox="0 0 81 80" fill="none" xmlns="http://www.w3.org/2000/svg">
<rect x="0.5" width="80" height="80" rx="10" fill="white"/>
<path d="M64.9286 22.8571H52.4143L50.5971 18.1943C50.3485 17.5499 49.9111 16.9957 49.3421 16.6042C48.7732 16.2126 48.0992 16.002 47.4086 16H34.4486C33.755 15.9986 33.0773 16.2076 32.5049 16.5993C31.9326 16.9911 31.4925 17.5472 31.2429 18.1943L29.4429 22.8571H16.9286C16.0193 22.8571 15.1472 23.2184 14.5042 23.8614C13.8612 24.5043 13.5 25.3764 13.5 26.2857V60.5714C13.5 61.4807 13.8612 62.3528 14.5042 62.9958C15.1472 63.6388 16.0193 64 16.9286 64H64.9286C65.8379 64 66.71 63.6388 67.3529 62.9958C67.9959 62.3528 68.3571 61.4807 68.3571 60.5714V26.2857C68.3571 25.3764 67.9959 24.5043 67.3529 23.8614C66.71 23.2184 65.8379 22.8571 64.9286 22.8571ZM64.9286 60.5714H16.9286V26.2857H31.7914L34.4486 19.4286H47.4086L50.0657 26.2857H64.9286V60.5714Z" fill="#399DB3"/>
<path d="M25.5 41.7137C25.5 44.7652 26.4049 47.7482 28.1002 50.2854C29.7955 52.8226 32.2051 54.8001 35.0243 55.9679C37.8435 57.1356 40.9457 57.4412 43.9385 56.8458C46.9314 56.2505 49.6805 54.7811 51.8382 52.6234C53.9959 50.4656 55.4654 47.7165 56.0607 44.7237C56.656 41.7308 56.3505 38.6287 55.1827 35.8095C54.015 32.9903 52.0374 30.5807 49.5002 28.8853C46.963 27.19 43.9801 26.2852 40.9286 26.2852C36.8367 26.2852 32.9123 27.9107 30.0189 30.8041C27.1255 33.6975 25.5 37.6218 25.5 41.7137ZM53.6143 41.7137C53.6143 44.2227 52.8703 46.6754 51.4764 48.7615C50.0824 50.8477 48.1012 52.4736 45.7832 53.4338C43.4652 54.3939 40.9145 54.6452 38.4537 54.1557C35.9929 53.6662 33.7325 52.458 31.9584 50.6839C30.1843 48.9097 28.9761 46.6494 28.4866 44.1886C27.9971 41.7278 28.2483 39.1771 29.2085 36.8591C30.1687 34.5411 31.7946 32.5599 33.8808 31.1659C35.9669 29.772 38.4196 29.028 40.9286 29.028C44.2916 29.0325 47.5157 30.3705 49.8937 32.7486C52.2718 35.1266 53.6097 38.3507 53.6143 41.7137Z" fill="#399DB3"/>
<path d="M31.2258 41.7132C31.2451 43.5213 31.7773 45.2866 32.7606 46.804C33.7439 48.3214 35.1378 49.5284 36.7801 50.2847L38.2373 47.9361C37.2556 47.6074 36.3612 47.0606 35.621 46.3369C34.8808 45.6132 34.3141 44.7313 33.9633 43.7573C33.6125 42.7834 33.4868 41.7426 33.5957 40.7132C33.7045 39.6837 34.0449 38.6922 34.5916 37.8131C35.1382 36.934 35.8768 36.19 36.7519 35.637C37.627 35.0841 38.616 34.7364 39.6447 34.6201C40.6733 34.5039 41.715 34.622 42.6914 34.9657C43.6679 35.3094 44.5539 35.8697 45.283 36.6047L46.7573 34.239C45.3538 33.1019 43.6562 32.387 41.8621 32.1776C40.0681 31.9681 38.2514 32.2728 36.6238 33.0561C34.9963 33.8393 33.6247 35.0689 32.669 36.6016C31.7133 38.1343 31.2128 39.907 31.2258 41.7132Z" fill="#399DB3"/>
</svg>
