<svg width="44" height="45" viewBox="0 0 44 45" fill="none" xmlns="http://www.w3.org/2000/svg">
<rect width="44" height="44" rx="22" fill="white"/>
<mask id="mask0_18_172" style="mask-type:luminance" maskUnits="userSpaceOnUse" x="0" y="0" width="44" height="44">
<rect width="44" height="44" rx="22" fill="white"/>
</mask>
<g mask="url(#mask0_18_172)">
<path fill-rule="evenodd" clip-rule="evenodd" d="M62 0H0V3H62V0ZM62 6H0V9H62V6ZM0 12H62V15H0V12ZM62 18H0V21H62V18ZM0 24H62V27H0V24ZM62 30H0V33H62V30ZM0 36H62V39H0V36ZM62 42H0V45H62V42Z" fill="#B31942"/>
<rect width="23" height="23" fill="#0A3161"/>
<path d="M2.5 19L2.83677 20.0365H3.92658L3.04491 20.6771L3.38168 21.7135L2.5 21.0729L1.61832 21.7135L1.95509 20.6771L1.07342 20.0365H2.16323L2.5 19Z" fill="white"/>
<path d="M2.5 15L2.83677 16.0365H3.92658L3.04491 16.6771L3.38168 17.7135L2.5 17.0729L1.61832 17.7135L1.95509 16.6771L1.07342 16.0365H2.16323L2.5 15Z" fill="white"/>
<path d="M2.5 11L2.83677 12.0365H3.92658L3.04491 12.6771L3.38168 13.7135L2.5 13.0729L1.61832 13.7135L1.95509 12.6771L1.07342 12.0365H2.16323L2.5 11Z" fill="white"/>
<path d="M2.5 7L2.83677 8.03647H3.92658L3.04491 8.67705L3.38168 9.71353L2.5 9.07295L1.61832 9.71353L1.95509 8.67705L1.07342 8.03647H2.16323L2.5 7Z" fill="white"/>
<path d="M2.5 3L2.83677 4.03647H3.92658L3.04491 4.67705L3.38168 5.71353L2.5 5.07295L1.61832 5.71353L1.95509 4.67705L1.07342 4.03647H2.16323L2.5 3Z" fill="white"/>
<path d="M8.5 19L8.83677 20.0365H9.92658L9.04491 20.6771L9.38168 21.7135L8.5 21.0729L7.61832 21.7135L7.95509 20.6771L7.07342 20.0365H8.16323L8.5 19Z" fill="white"/>
<path d="M8.5 15L8.83677 16.0365H9.92658L9.04491 16.6771L9.38168 17.7135L8.5 17.0729L7.61832 17.7135L7.95509 16.6771L7.07342 16.0365H8.16323L8.5 15Z" fill="white"/>
<path d="M8.5 11L8.83677 12.0365H9.92658L9.04491 12.6771L9.38168 13.7135L8.5 13.0729L7.61832 13.7135L7.95509 12.6771L7.07342 12.0365H8.16323L8.5 11Z" fill="white"/>
<path d="M8.5 7L8.83677 8.03647H9.92658L9.04491 8.67705L9.38168 9.71353L8.5 9.07295L7.61832 9.71353L7.95509 8.67705L7.07342 8.03647H8.16323L8.5 7Z" fill="white"/>
<path d="M8.5 3L8.83677 4.03647H9.92658L9.04491 4.67705L9.38168 5.71353L8.5 5.07295L7.61832 5.71353L7.95509 4.67705L7.07342 4.03647H8.16323L8.5 3Z" fill="white"/>
<path d="M14.5 19L14.8368 20.0365H15.9266L15.0449 20.6771L15.3817 21.7135L14.5 21.0729L13.6183 21.7135L13.9551 20.6771L13.0734 20.0365H14.1632L14.5 19Z" fill="white"/>
<path d="M14.5 15L14.8368 16.0365H15.9266L15.0449 16.6771L15.3817 17.7135L14.5 17.0729L13.6183 17.7135L13.9551 16.6771L13.0734 16.0365H14.1632L14.5 15Z" fill="white"/>
<path d="M14.5 11L14.8368 12.0365H15.9266L15.0449 12.6771L15.3817 13.7135L14.5 13.0729L13.6183 13.7135L13.9551 12.6771L13.0734 12.0365H14.1632L14.5 11Z" fill="white"/>
<path d="M14.5 7L14.8368 8.03647H15.9266L15.0449 8.67705L15.3817 9.71353L14.5 9.07295L13.6183 9.71353L13.9551 8.67705L13.0734 8.03647H14.1632L14.5 7Z" fill="white"/>
<path d="M14.5 3L14.8368 4.03647H15.9266L15.0449 4.67705L15.3817 5.71353L14.5 5.07295L13.6183 5.71353L13.9551 4.67705L13.0734 4.03647H14.1632L14.5 3Z" fill="white"/>
<path d="M14.5 -1L14.8368 0.0364745H15.9266L15.0449 0.677051L15.3817 1.71353L14.5 1.07295L13.6183 1.71353L13.9551 0.677051L13.0734 0.0364745H14.1632L14.5 -1Z" fill="white"/>
<path d="M20.5 19L20.8368 20.0365H21.9266L21.0449 20.6771L21.3817 21.7135L20.5 21.0729L19.6183 21.7135L19.9551 20.6771L19.0734 20.0365H20.1632L20.5 19Z" fill="white"/>
<path d="M20.5 15L20.8368 16.0365H21.9266L21.0449 16.6771L21.3817 17.7135L20.5 17.0729L19.6183 17.7135L19.9551 16.6771L19.0734 16.0365H20.1632L20.5 15Z" fill="white"/>
<path d="M20.5 11L20.8368 12.0365H21.9266L21.0449 12.6771L21.3817 13.7135L20.5 13.0729L19.6183 13.7135L19.9551 12.6771L19.0734 12.0365H20.1632L20.5 11Z" fill="white"/>
<path d="M20.5 7L20.8368 8.03647H21.9266L21.0449 8.67705L21.3817 9.71353L20.5 9.07295L19.6183 9.71353L19.9551 8.67705L19.0734 8.03647H20.1632L20.5 7Z" fill="white"/>
<path d="M20.5 3L20.8368 4.03647H21.9266L21.0449 4.67705L21.3817 5.71353L20.5 5.07295L19.6183 5.71353L19.9551 4.67705L19.0734 4.03647H20.1632L20.5 3Z" fill="white"/>
<path d="M20.5 -1L20.8368 0.0364745H21.9266L21.0449 0.677051L21.3817 1.71353L20.5 1.07295L19.6183 1.71353L19.9551 0.677051L19.0734 0.0364745H20.1632L20.5 -1Z" fill="white"/>
</g>
</svg>
